<?xml version="1.0" encoding="UTF-8"?><svg xmlns="http://www.w3.org/2000/svg" viewBox="0 0 500 200"><defs><style>.cls-1{fill:#f79e1b;}.cls-2{fill:#ff5a00;}.cls-3{fill:#eb001b;}.cls-4{fill:#d9d9d9;}</style></defs><g id="background"><g><rect class="cls-4" x=".5" y=".5" width="499" height="199"/><path d="M499,1V199H1V1H499m1-1H0V200H500V0h0Z"/></g></g><g id="mastercard-logo"><path d="M178.49,184.63v-11.11c0-4.25-2.59-7.03-7.03-7.03-2.22,0-4.64,.73-6.3,3.15-1.29-2.03-3.15-3.15-5.93-3.15-1.86,0-3.71,.56-5.18,2.59v-2.22h-3.88v17.78h3.88v-9.82c0-3.15,1.66-4.64,4.25-4.64s3.88,1.66,3.88,4.64v9.82h3.88v-9.82c0-3.15,1.86-4.64,4.25-4.64,2.59,0,3.88,1.66,3.88,4.64v9.82h4.29Zm57.61-17.78h-6.3v-5.37h-3.88v5.37h-3.52v3.52h3.52v8.16c0,4.08,1.66,6.47,6.11,6.47,1.66,0,3.52-.56,4.81-1.29l-1.12-3.34c-1.12,.73-2.42,.93-3.34,.93-1.86,0-2.59-1.12-2.59-2.96v-7.96h6.3v-3.52h.02Zm32.97-.39c-2.22,0-3.71,1.12-4.64,2.59v-2.22h-3.88v17.78h3.88v-10.01c0-2.96,1.29-4.64,3.71-4.64,.73,0,1.66,.19,2.42,.37l1.12-3.71c-.78-.15-1.88-.15-2.61-.15h0Zm-49.82,1.86c-1.86-1.29-4.45-1.86-7.23-1.86-4.45,0-7.4,2.22-7.4,5.74,0,2.96,2.22,4.64,6.11,5.18l1.86,.19c2.03,.37,3.15,.93,3.15,1.86,0,1.29-1.49,2.22-4.08,2.22s-4.64-.93-5.93-1.86l-1.86,2.96c2.03,1.49,4.81,2.22,7.6,2.22,5.18,0,8.16-2.42,8.16-5.74,0-3.15-2.42-4.81-6.11-5.37l-1.86-.19c-1.66-.19-2.96-.56-2.96-1.66,0-1.29,1.29-2.03,3.34-2.03,2.22,0,4.45,.93,5.57,1.49l1.64-3.15h0Zm103.34-1.86c-2.22,0-3.71,1.12-4.64,2.59v-2.22h-3.88v17.78h3.88v-10.01c0-2.96,1.29-4.64,3.71-4.64,.73,0,1.66,.19,2.42,.37l1.12-3.67c-.76-.19-1.86-.19-2.61-.19h0Zm-49.63,9.28c0,5.37,3.71,9.26,9.45,9.26,2.59,0,4.45-.56,6.3-2.03l-1.86-3.15c-1.49,1.12-2.96,1.66-4.64,1.66-3.15,0-5.37-2.22-5.37-5.74s2.22-5.57,5.37-5.74c1.66,0,3.15,.56,4.64,1.66l1.86-3.15c-1.86-1.49-3.71-2.03-6.3-2.03-5.74-.02-9.45,3.88-9.45,9.26h0Zm35.93,0v-8.89h-3.88v2.22c-1.29-1.66-3.15-2.59-5.57-2.59-5.01,0-8.89,3.88-8.89,9.26s3.88,9.26,8.89,9.26c2.59,0,4.45-.93,5.57-2.59v2.22h3.88v-8.89h0Zm-14.26,0c0-3.15,2.03-5.74,5.37-5.74,3.15,0,5.37,2.42,5.37,5.74,0,3.15-2.22,5.74-5.37,5.74-3.32-.19-5.37-2.61-5.37-5.74h0Zm-46.48-9.28c-5.18,0-8.89,3.71-8.89,9.26s3.71,9.26,9.08,9.26c2.59,0,5.18-.73,7.23-2.42l-1.86-2.78c-1.49,1.12-3.34,1.86-5.18,1.86-2.42,0-4.81-1.12-5.37-4.25h13.14v-1.49c.17-5.72-3.17-9.43-8.16-9.43h0Zm0,3.34c2.42,0,4.08,1.49,4.45,4.25h-9.26c.37-2.4,2.03-4.25,4.81-4.25h0Zm96.5,5.93v-15.92h-3.88v9.26c-1.29-1.66-3.15-2.59-5.57-2.59-5.01,0-8.89,3.88-8.89,9.26s3.88,9.26,8.89,9.26c2.59,0,4.45-.93,5.57-2.59v2.22h3.88v-8.89h0Zm-14.26,0c0-3.15,2.03-5.74,5.37-5.74,3.15,0,5.37,2.42,5.37,5.74,0,3.15-2.22,5.74-5.37,5.74-3.34-.19-5.37-2.61-5.37-5.74h0Zm-130.03,0v-8.89h-3.88v2.22c-1.29-1.66-3.15-2.59-5.57-2.59-5.01,0-8.89,3.88-8.89,9.26s3.88,9.26,8.89,9.26c2.59,0,4.45-.93,5.57-2.59v2.22h3.88v-8.89h0Zm-14.44,0c0-3.15,2.03-5.74,5.37-5.74,3.15,0,5.37,2.42,5.37,5.74,0,3.15-2.22,5.74-5.37,5.74-3.34-.19-5.37-2.61-5.37-5.74Z"/><g><rect id="rect19" class="cls-2" x="217.95" y="31.81" width="58.35" height="104.83"/><path class="cls-3" d="M221.84,84.23c0-21.3,10.01-40.2,25.38-52.41-11.31-8.89-25.57-14.26-41.13-14.26-36.86,0-66.68,29.82-66.68,66.68s29.82,66.68,66.68,66.68c15.56,0,29.82-5.37,41.13-14.26-15.39-12.04-25.38-31.12-25.38-52.41Z"/><path id="path22" class="cls-1" d="M355.02,84.23c0,36.86-29.82,66.68-66.68,66.68-15.56,0-29.82-5.37-41.13-14.26,15.56-12.23,25.38-31.12,25.38-52.41s-10.01-40.2-25.38-52.41c11.29-8.89,25.55-14.26,41.11-14.26,36.88,0,66.7,30.02,66.7,66.68Z"/></g></g></svg>