<?xml version="1.0" encoding="UTF-8"?><svg xmlns="http://www.w3.org/2000/svg" viewBox="0 0 500 200"><defs><style>.cls-1{fill:#179bd7;}.cls-2{fill:#253b80;}.cls-3{fill:#222d65;}.cls-4{fill:#d9d9d9;}</style></defs><g id="background"><g><rect class="cls-4" x=".5" y=".5" width="499" height="199"/><path d="M499,1V199H1V1H499m1-1H0V200H500V0h0Z"/></g></g><g id="paypal-logo"><path class="cls-2" d="M194.74,66.64h-26.01c-1.78,0-3.29,1.29-3.57,3.05l-10.52,66.69c-.21,1.32,.81,2.5,2.14,2.5h12.42c1.78,0,3.29-1.29,3.57-3.05l2.84-17.99c.27-1.76,1.79-3.05,3.57-3.05h8.23c17.13,0,27.02-8.29,29.6-24.72,1.16-7.19,.05-12.84-3.32-16.79-3.7-4.34-10.25-6.64-18.96-6.64Zm3,24.36c-1.42,9.33-8.55,9.33-15.45,9.33h-3.92l2.75-17.43c.16-1.05,1.08-1.83,2.14-1.83h1.8c4.7,0,9.13,0,11.42,2.68,1.37,1.6,1.78,3.97,1.26,7.25Z"/><path class="cls-2" d="M272.49,90.7h-12.45c-1.06,0-1.98,.78-2.14,1.83l-.55,3.48-.87-1.26c-2.7-3.91-8.71-5.22-14.71-5.22-13.76,0-25.52,10.42-27.81,25.05-1.19,7.29,.5,14.27,4.64,19.13,3.8,4.47,9.23,6.34,15.69,6.34,11.09,0,17.24-7.13,17.24-7.13l-.56,3.46c-.21,1.32,.81,2.51,2.14,2.51h11.22c1.78,0,3.29-1.29,3.57-3.05l6.73-42.63c.21-1.31-.8-2.5-2.13-2.5Zm-17.36,24.24c-1.2,7.12-6.85,11.89-14.05,11.89-3.62,0-6.51-1.16-8.36-3.36-1.84-2.18-2.54-5.29-1.95-8.75,1.12-7.05,6.86-11.99,13.96-11.99,3.54,0,6.41,1.18,8.31,3.39,1.9,2.24,2.65,5.37,2.11,8.81Z"/><path class="cls-2" d="M338.82,90.7h-12.52c-1.19,0-2.32,.59-2.99,1.59l-17.26,25.43-7.32-24.43c-.46-1.53-1.87-2.58-3.47-2.58h-12.3c-1.49,0-2.53,1.46-2.06,2.87l13.79,40.46-12.96,18.3c-1.02,1.44,0,3.42,1.77,3.42h12.5c1.19,0,2.3-.58,2.97-1.55l41.63-60.09c1-1.44-.03-3.4-1.78-3.4Z"/><path class="cls-1" d="M380.26,66.64h-26.01c-1.78,0-3.29,1.29-3.57,3.05l-10.52,66.69c-.21,1.32,.81,2.5,2.14,2.5h13.35c1.24,0,2.3-.91,2.49-2.14l2.99-18.9c.27-1.76,1.79-3.05,3.57-3.05h8.23c17.14,0,27.02-8.29,29.61-24.72,1.17-7.19,.05-12.84-3.32-16.79-3.69-4.34-10.25-6.64-18.95-6.64Zm3,24.36c-1.42,9.33-8.55,9.33-15.45,9.33h-3.92l2.76-17.43c.16-1.05,1.07-1.83,2.14-1.83h1.8c4.69,0,9.13,0,11.42,2.68,1.37,1.6,1.78,3.97,1.26,7.25Z"/><path class="cls-1" d="M458,90.7h-12.45c-1.07,0-1.98,.78-2.14,1.83l-.55,3.48-.87-1.26c-2.7-3.91-8.71-5.22-14.71-5.22-13.76,0-25.51,10.42-27.8,25.05-1.19,7.29,.5,14.27,4.64,19.13,3.8,4.47,9.23,6.34,15.69,6.34,11.09,0,17.24-7.13,17.24-7.13l-.56,3.46c-.21,1.32,.81,2.51,2.14,2.51h11.22c1.78,0,3.29-1.29,3.57-3.05l6.74-42.63c.21-1.31-.81-2.5-2.15-2.5Zm-17.36,24.24c-1.19,7.12-6.85,11.89-14.05,11.89-3.61,0-6.51-1.16-8.36-3.36-1.84-2.18-2.53-5.29-1.95-8.75,1.13-7.05,6.86-11.99,13.96-11.99,3.54,0,6.41,1.18,8.31,3.39,1.91,2.24,2.66,5.37,2.11,8.81Z"/><path class="cls-1" d="M472.68,68.47l-10.68,67.91c-.21,1.32,.81,2.5,2.14,2.5h10.73c1.78,0,3.3-1.29,3.57-3.05l10.53-66.69c.21-1.32-.81-2.51-2.14-2.51h-12.02c-1.06,0-1.97,.78-2.14,1.83Z"/><path class="cls-2" d="M46.63,151.84l1.99-12.63-4.43-.1H23.03l14.7-93.22c.05-.28,.19-.54,.41-.73,.22-.19,.49-.29,.78-.29h35.67c11.84,0,20.02,2.46,24.28,7.33,2,2.28,3.27,4.67,3.89,7.29,.65,2.75,.66,6.04,.03,10.06l-.05,.29v2.57l2,1.13c1.68,.89,3.02,1.92,4.05,3.09,1.71,1.95,2.82,4.43,3.29,7.37,.48,3.02,.32,6.62-.47,10.69-.91,4.69-2.39,8.77-4.38,12.1-1.83,3.08-4.17,5.63-6.94,7.61-2.65,1.88-5.79,3.3-9.35,4.22-3.45,.9-7.37,1.35-11.68,1.35h-2.78c-1.99,0-3.91,.71-5.43,2-1.52,1.31-2.52,3.1-2.83,5.05l-.21,1.14-3.51,22.27-.16,.82c-.04,.26-.11,.39-.22,.48-.1,.08-.23,.13-.37,.13,0,0-17.14,0-17.14,0Z"/><path class="cls-1" d="M106.65,70.13h0c-.11,.68-.23,1.38-.37,2.09-4.7,24.15-20.8,32.5-41.35,32.5h-10.47c-2.51,0-4.63,1.83-5.02,4.31h0l-5.36,33.98-1.52,9.63c-.25,1.63,1,3.1,2.64,3.1h18.56c2.2,0,4.07-1.6,4.41-3.76l.18-.94,3.49-22.18,.22-1.22c.34-2.18,2.21-3.77,4.41-3.77h2.78c17.98,0,32.06-7.3,36.18-28.43,1.72-8.83,.83-16.2-3.72-21.38-1.38-1.56-3.08-2.86-5.08-3.92Z"/><path class="cls-3" d="M101.73,68.17c-.72-.21-1.46-.4-2.22-.57-.76-.17-1.55-.32-2.35-.44-2.82-.46-5.91-.67-9.23-.67h-27.96c-.69,0-1.34,.16-1.93,.44-1.29,.62-2.25,1.84-2.48,3.34l-5.95,37.67-.17,1.1c.39-2.48,2.51-4.31,5.02-4.31h10.47c20.56,0,36.65-8.35,41.35-32.5,.14-.71,.26-1.41,.37-2.09-1.19-.63-2.48-1.17-3.87-1.63-.34-.11-.7-.22-1.05-.33Z"/><path class="cls-2" d="M55.56,70.25c.23-1.49,1.19-2.72,2.48-3.33,.59-.28,1.24-.44,1.93-.44h27.96c3.31,0,6.4,.22,9.23,.67,.81,.13,1.59,.28,2.35,.44,.76,.17,1.5,.36,2.22,.57,.36,.11,.71,.22,1.06,.33,1.39,.46,2.68,1,3.87,1.63,1.4-8.93-.01-15-4.84-20.51-5.32-6.06-14.92-8.65-27.21-8.65H38.94c-2.51,0-4.65,1.83-5.04,4.31l-14.86,94.18c-.29,1.86,1.14,3.54,3.02,3.54h22.02l5.53-35.08,5.95-37.67Z"/></g></svg>